<svg xmlns="http://www.w3.org/2000/svg" viewBox="0 0 1920 1080"><defs><style>.cls-1{fill:#27374d;}.cls-2,.cls-4{fill:#dde6ed;}.cls-3{fill:#9eb3c0;}.cls-4{font-size:184.35px;font-family:Evolventa-Regular, Evolventa;letter-spacing:-0.05em;}.cls-5{letter-spacing:0.01em;}.cls-6{letter-spacing:-0.02em;}.cls-7{letter-spacing:0em;}</style></defs><title>tawebudblue</title><g id="Слой_2" data-name="Слой 2"><g id="Слой_3" data-name="Слой 3"><rect class="cls-1" width="1920" height="1080"/></g><polygon class="cls-2" points="928.67 345.38 928.67 250.21 918.53 250.21 918.53 351.86 928.67 345.38"/><rect class="cls-2" x="1085.31" y="500.07" width="10.14" height="115" transform="translate(2180.75 1115.14) rotate(180)"/><rect class="cls-2" x="1110.14" y="510.44" width="10.14" height="93.83" transform="translate(2230.41 1114.71) rotate(180)"/><polygon class="cls-2" points="953.81 321.14 953.81 250.21 943.67 250.21 943.67 326.95 953.81 321.14"/><rect class="cls-3" x="729.72" y="488.33" width="49.67" height="131.97"/><polygon class="cls-3" points="779.39 461.79 779.39 488.33 729.72 488.33 779.39 461.79"/><rect class="cls-3" x="988.18" y="420.09" width="50.11" height="210.72"/><polygon class="cls-3" points="988.17 393.41 988.17 433.17 1038.59 419.92 988.17 393.41"/><polygon class="cls-3" points="899 250.34 899 370.92 898.97 370.92 898.97 625.54 873.35 625.54 873.35 370.92 872.28 370.92 819.02 400.88 819.02 250.34 899 250.34"/><path class="cls-2" d="M1192.5,629.31v4.82h-36.33v-169h-97.94V409.45l-72.05-42.1-9.11,6.34V224.57H793.36V428.35l-74.12,41.53h0l-12,6.69V646.83H744.6v3.95h20.2V629.31H744.6v4.82H719.24V484.62l74.12-41.82v204h69.4V389.45L805.3,421.66V237.26H965.13V382l-51,35.54V646.83h63V387.19l9.11-6.49,60.11,34.94v49.49h-34.94v181.7h46.88v-169h86v169h48.28v3.95h20.21V629.31ZM850.81,410.4V634.13H805.3V436.07ZM965.13,634.13H926V423.52l39.1-27.83Zm81.16,0h-23V477.82h23Z"/><text class="cls-4" transform="translate(533.86 809.52)">T<tspan class="cls-5" x="69.69" y="0">a</tspan><tspan class="cls-6" x="196.7" y="0">w</tspan><tspan class="cls-7" x="346.21" y="0">ebud</tspan></text></g></svg>